HIERARCHY
ROOT Hips
{
	OFFSET 0.00000 0.00000 0.00000
	CHANNELS 6 Xposition Yposition Zposition Zrotation Yrotation Xrotation 
	JOINT LHipJoint
	{
		OFFSET 0 0 0
		CHANNELS 3 Zrotation Yrotation Xrotation
		JOINT LeftHip
		{
			OFFSET 1.92105 -1.55469 0.57908
			CHANNELS 3 Zrotation Yrotation Xrotation
			JOINT LeftKnee
			{
				OFFSET 2.22936 -6.12512 0.00000
				CHANNELS 3 Zrotation Yrotation Xrotation
				JOINT LeftAnkle
				{
					OFFSET 2.39380 -6.57693 0.00000
					CHANNELS 3 Zrotation Yrotation Xrotation
					JOINT LeftToe
					{
						OFFSET 0.18279 -0.50221 1.84518
						CHANNELS 3 Zrotation Yrotation Xrotation
						End Site
						{
							OFFSET 0.00000 -0.00000 0.96438
						}
					}
				}
			}
		}
	}
	JOINT RHipJoint
	{
		OFFSET 0 0 0
		CHANNELS 3 Zrotation Yrotation Xrotation
		JOINT RightHip
		{
			OFFSET -1.89358 -1.55469 0.57908
			CHANNELS 3 Zrotation Yrotation Xrotation
			JOINT RightKnee
			{
				OFFSET -2.33387 -6.41225 0.00000
				CHANNELS 3 Zrotation Yrotation Xrotation
				JOINT RightAnkle
				{
					OFFSET -2.38966 -6.56553 0.00000
					CHANNELS 3 Zrotation Yrotation Xrotation
					JOINT RightToe
					{
						OFFSET -0.18298 -0.50273 1.96046
						CHANNELS 3 Zrotation Yrotation Xrotation
						End Site
						{
							OFFSET -0.00000 -0.00000 1.01970
						}
					}
				}
			}
		}
	}
	JOINT lowerback
	{
		OFFSET 0 0 0
		CHANNELS 3 Zrotation Yrotation Xrotation
		JOINT Chest
		{
			OFFSET 0.03719 2.01033 -0.18318
			CHANNELS 3 Zrotation Yrotation Xrotation
			JOINT Chest2
			{
				OFFSET 0.00561 1.99379 0.09854
				CHANNELS 3 Zrotation Yrotation Xrotation
				JOINT lowerneck
				{
					OFFSET 0 0 0
					CHANNELS 3 Zrotation Yrotation Xrotation
					JOINT Neck
					{
						OFFSET -0.16458 1.70299 0.07694
						CHANNELS 3 Zrotation Yrotation Xrotation
						JOINT Head
						{
							OFFSET 0.23603 1.70483 -0.17696
							CHANNELS 3 Zrotation Yrotation Xrotation
							End Site
							{
								OFFSET 0.09691 1.73862 -0.07054
							}
						}
					}
				}
				JOINT LeftCollar
				{
					OFFSET 0 0 0
					CHANNELS 3 Zrotation Yrotation Xrotation
					JOINT LeftShoulder
					{
						OFFSET 2.95817 1.35820 -0.02124
CHANNELS 3 Zrotation Xrotation Yrotation
						JOINT LeftElbow
						{
OFFSET 0 -4.848340 0.000000
CHANNELS 3 Zrotation Xrotation Yrotation
							JOINT LeftWrist
							{
OFFSET 0 -2.997130 0.000000
CHANNELS 3 Zrotation Xrotation Yrotation
								JOINT lhand
								{
									OFFSET 0 0 0
CHANNELS 3 Zrotation Xrotation Yrotation
									JOINT LFingers
									{
OFFSET 0 -0.693990 0.000000
CHANNELS 3 Zrotation Xrotation Yrotation
										End Site
										{
OFFSET 0 -0.559510 0.000000
										}
									}
								}
								JOINT LThumb
								{
OFFSET 0 0.000000 0.000000
CHANNELS 3 Zrotation Xrotation Yrotation
									End Site
									{
OFFSET 0 -0.568050 0.568050
									}
								}
							}
						}
					}
				}
				JOINT RightCollar
				{
					OFFSET 0 0 0
					CHANNELS 3 Zrotation Yrotation Xrotation
					JOINT RightShoulder
					{
						OFFSET -3.02016 1.39593 0.16199
CHANNELS 3 Zrotation Xrotation Yrotation
						JOINT RightElbow
						{
OFFSET 0 -4.934570 0.000000
CHANNELS 3 Zrotation Xrotation Yrotation
							JOINT RightWrist
							{
OFFSET 0 -3.344300 0.000000
CHANNELS 3 Zrotation Xrotation Yrotation
								JOINT rhand
								{
									OFFSET 0 0 0
CHANNELS 3 Zrotation Xrotation Yrotation
									JOINT RFingers
									{
OFFSET 0 -0.677360 0.000000
CHANNELS 3 Zrotation Xrotation Yrotation
										End Site
										{
OFFSET 0 -0.546110 0.000000
										}
									}
								}
								JOINT RThumb
								{
OFFSET 0 0.000000 0.000000
CHANNELS 3 Zrotation Xrotation Yrotation
									End Site
									{
OFFSET 0 -0.554450 0.554450
									}
								}
							}
						}
					}
				}
			}
		}
	}
}
MOTION
Frames: 8
Frame Time: 0.008333333333333333
-4.656800 15.782000 0.254300 23.077900 -82.231600 -24.150400 0.000000 0.000000 0.000000 -16.964100 7.008400 0.324300 12.675000 18.661600 68.112900 0.695700 6.808500 14.918900 3.364300 -11.262600 -33.170900 0.000000 0.000000 0.000000 22.686000 -2.382400 -8.226600 -12.708700 -18.674400 68.218300 0.035700 -11.906600 7.842400 -0.817900 -5.770700 16.120600 0.643900 0.258400 2.627600 -0.504200 0.055600 -9.913100 -0.886200 -0.190500 -12.120900 -13.546300 1.206600 -1.254800 9.179900 -0.919100 33.441800 5.628900 -1.725000 11.012100 0.000000 0.000000 0.000000 158.185400 -51.257800 97.414100 16.622900 -26.357900 3.918400 -4.484200 26.404100 -17.712100 0.000000 0.000000 0.000000 -7.125000 0.000000 0.000000 -29.878800 45.354700 0.287900 0.000000 0.000000 0.000000 -169.503600 -50.128900 -114.713600 -17.177500 -27.091200 -4.167800 14.314600 24.016700 -17.496500 0.000000 0.000000 0.000000 7.125000 0.000000 -0.000000 26.909900 13.076900 22.865700
-5.105055 15.800307 0.287736 28.334403 -81.582651 -31.081160 0.000000 0.000000 0.000000 -17.725105 7.650109 1.104784 12.827807 18.717980 68.588662 0.606771 6.406781 13.925074 3.201485 -11.014305 -32.328285 0.000000 0.000000 0.000000 21.242419 -2.992802 -8.045348 -13.688827 -19.014995 71.250248 -0.309663 -19.374596 16.082986 -0.984309 -6.314483 17.699848 -0.188891 0.338294 3.070267 -0.812753 0.087740 -9.512756 -0.761041 -0.100405 -11.930649 -13.531109 1.168910 -1.473835 9.034740 -0.932577 33.865401 5.590324 -1.764400 11.230669 0.000000 0.000000 0.000000 158.862525 -50.851913 99.174470 16.890288 -26.712612 4.038088 -5.495205 26.272743 -18.050437 0.000000 0.000000 0.000000 -7.125000 0.000000 0.000000 -30.897223 45.522875 0.441671 0.000000 0.000000 0.000000 -170.068015 -49.451518 -115.655540 -17.224558 -27.152754 -4.189379 14.685436 24.450793 -17.094534 0.000000 0.000000 0.000000 7.125000 0.000000 0.000000 27.181724 13.427573 22.935353
-5.517345 15.814474 0.292912 16.470571 -82.407643 -19.855587 0.000000 0.000000 0.000000 -15.034827 7.911845 -0.285005 13.466000 18.943945 70.566681 0.500901 5.033164 12.601216 2.797268 -10.358991 -30.147760 0.000000 0.000000 0.000000 23.546982 -2.177047 -8.683924 -14.475043 -19.251689 73.650112 -0.388955 -25.511654 20.436434 -0.723591 -5.435333 15.154570 1.771307 0.547753 2.744870 -0.758913 0.553639 -9.468191 -1.856792 -0.051575 -11.657612 -14.722669 1.099779 -2.621518 10.455408 -1.172691 34.738065 6.411856 -1.890923 11.843533 0.000000 0.000000 0.000000 160.137681 -50.766432 100.768395 17.463786 -27.465063 4.299024 -5.924292 25.710774 -18.097692 0.000000 0.000000 0.000000 -7.125000 0.000000 0.000000 -31.281621 45.509771 0.437344 0.000000 0.000000 0.000000 -169.713346 -48.617544 -116.901257 -17.037786 -26.907629 -4.104393 15.685629 26.047036 -17.817726 0.000000 0.000000 0.000000 7.125000 0.000000 0.000000 27.628218 12.714792 23.907522
-5.905208 15.800870 0.295006 11.676440 -82.643333 -15.822902 0.000000 0.000000 0.000000 -13.562013 8.245045 -1.773906 14.129160 19.151662 72.597660 0.389835 3.444847 11.106458 2.909101 -10.510278 -30.681523 0.000000 0.000000 0.000000 24.414121 -1.754172 -9.273085 -15.340591 -19.468878 76.258830 -0.198121 -25.977639 19.572327 -0.728617 -5.443706 15.181027 2.294659 0.822425 2.527263 -1.040174 0.955635 -9.122164 -2.496046 0.099964 -11.099114 -11.535435 0.344923 -1.716749 8.592156 -2.151963 33.373603 4.935368 -2.082328 11.226936 0.000000 0.000000 0.000000 162.962924 -49.968095 103.894580 17.607612 -27.651750 4.365667 -6.517917 25.982564 -18.509933 0.000000 0.000000 0.000000 -7.125000 0.000000 0.000000 -31.989332 45.789293 0.695445 0.000000 0.000000 0.000000 -168.357763 -47.204651 -115.950404 -17.168935 -27.079942 -4.163976 16.556901 25.872340 -17.545026 0.000000 0.000000 0.000000 7.125000 0.000000 0.000000 28.153956 12.912901 24.373626
-6.310973 15.794848 0.301637 15.827128 -82.522553 -21.337515 0.000000 0.000000 0.000000 -13.747309 8.666985 -2.196410 14.597807 19.285380 74.021994 0.315109 1.561883 10.173486 3.325731 -11.193801 -32.949486 0.000000 0.000000 0.000000 23.716905 -1.975868 -9.422719 -16.257919 -19.660626 78.999129 0.088140 -24.587640 16.753512 -1.312076 -7.241010 20.438356 1.973692 1.074431 3.115990 -1.558187 1.254298 -8.767607 -2.918951 0.258925 -11.030335 -11.497819 0.119138 -1.974034 8.874641 -2.518378 33.366416 5.006485 -2.205316 11.319049 0.000000 0.000000 0.000000 164.654605 -49.614595 106.696048 17.630100 -27.680836 4.376063 -6.399745 26.636336 -19.026868 0.000000 0.000000 0.000000 -7.125000 0.000000 0.000000 -32.160684 46.247752 1.106312 0.000000 0.000000 0.000000 -167.097121 -45.888902 -113.994466 -17.266049 -27.207114 -4.208242 17.191562 24.309922 -17.094568 0.000000 0.000000 0.000000 7.125000 0.000000 0.000000 28.577722 13.283429 24.604183
-6.724110 15.799840 0.320295 17.464814 -82.284219 -24.040516 0.000000 0.000000 0.000000 -13.865207 8.714023 -2.964228 14.972287 19.382414 75.152834 0.290436 0.349711 10.061437 2.920325 -9.842432 -29.139472 0.000000 0.000000 0.000000 23.378376 -2.014981 -10.311239 -17.148355 -19.801843 81.635275 0.184447 -22.868667 14.755505 -3.363523 -11.128363 32.866640 1.540967 0.748564 3.183546 -1.195005 0.811284 -8.779953 -2.232538 0.099790 -11.120268 -12.855026 1.018902 -1.365754 9.370760 -1.402627 34.340142 5.578303 -1.898395 11.455070 0.000000 0.000000 0.000000 162.568027 -49.265837 105.458707 17.725583 -27.804383 4.420481 -6.428897 25.855495 -19.906491 0.000000 0.000000 0.000000 -7.125000 0.000000 0.000000 -32.663338 46.993394 1.806247 0.000000 0.000000 0.000000 -168.687721 -45.900104 -115.209267 -17.466773 -27.468808 -4.300493 18.155372 23.544092 -16.846645 0.000000 0.000000 0.000000 7.125000 0.000000 0.000000 29.145512 13.439611 25.153964
-7.130729 15.813748 0.335389 18.361135 -82.047103 -26.269091 0.000000 0.000000 0.000000 -13.800130 8.485456 -3.511953 15.314065 19.465124 76.180955 0.160410 0.820244 7.313274 0.708470 -5.345410 -14.903119 0.000000 0.000000 0.000000 23.328720 -2.181532 -11.174086 -17.981435 -19.901706 84.088787 0.367396 -22.635048 13.119926 -5.835734 -14.260117 44.305623 0.963635 0.606623 3.505401 -1.009294 0.610384 -8.431655 -1.684983 0.076843 -10.936767 -12.253255 1.282874 -1.959739 8.605415 -0.838416 35.185681 5.263565 -1.676709 11.850028 0.000000 0.000000 0.000000 161.862420 -48.394547 105.181462 17.879280 -28.002347 4.492405 -6.069261 25.304002 -19.484053 0.000000 0.000000 0.000000 -7.125000 0.000000 0.000000 -32.123218 46.683362 1.486108 0.000000 0.000000 0.000000 -169.318048 -45.285411 -115.647738 -17.663428 -27.724105 -4.391564 18.573383 22.949476 -16.534781 0.000000 0.000000 0.000000 7.125000 0.000000 0.000000 29.427354 13.691333 25.300159
-7.520773 15.820547 0.343544 12.960617 -82.517222 -22.203521 0.000000 0.000000 0.000000 -12.435203 8.572277 -4.263701 15.699467 19.550208 77.334699 0.100296 -0.154117 6.071408 0.165997 -2.625068 -7.236610 0.000000 0.000000 0.000000 24.543322 -1.960514 -12.015124 -18.750547 -19.961054 86.344433 0.997949 -23.784110 8.695123 -7.367124 -15.633375 50.249461 2.174463 0.716342 4.056745 -1.112013 0.878005 -8.384006 -2.518807 0.096891 -11.195530 -11.980975 1.423162 -2.021904 8.565505 -0.741821 36.000235 5.242260 -1.658268 12.191517 0.000000 0.000000 0.000000 162.883035 -48.474866 106.600867 17.931209 -28.068952 4.516775 -6.455888 25.812774 -19.428473 0.000000 0.000000 0.000000 -7.125000 0.000000 0.000000 -32.422117 46.584019 1.416564 0.000000 0.000000 0.000000 -168.851059 -45.141682 -115.728426 -17.688756 -27.756747 -4.403288 18.781448 23.020255 -16.689824 0.000000 0.000000 0.000000 7.125000 0.000000 0.000000 29.511422 13.533104 25.517236
